<!--?xml version="1.0" standalone="no"?-->

<svg version="1.0" xmlns="http://www.w3.org/2000/svg" width="300.000000pt" height="300.000000pt" viewBox="0 0 300.000000 300.000000" preserveAspectRatio="xMidYMid meet">
<g transform="translate(0.000000,300.000000) scale(0.100000,-0.100000)" fill="#3c3b3b" stroke="none">
<path d="M1140 2994 c-132 -45 -204 -135 -217 -269 l-6 -65 -241 0 c-225 0
-243 -1 -274 -20 -20 -12 -41 -37 -50 -60 -17 -38 -18 -39 -72 -42 l-55 -3 -3
-95 c-2 -52 0 -105 3 -117 l5 -23 1270 0 1270 0 5 23 c3 12 5 65 3 117 l-3 95
-55 3 c-54 3 -55 4 -72 42 -9 23 -30 48 -50 60 -31 19 -49 20 -274 20 l-241 0
-6 65 c-11 113 -62 193 -158 246 l-44 24 -360 2 c-198 1 -367 0 -375 -3z m673
-252 c9 -10 20 -33 23 -50 l7 -32 -343 0 -342 0 6 32 c14 70 6 68 336 68 274
0 298 -1 313 -18z" id="node1" class="node"></path>
<path d="M467 2193 c-4 -3 -7 -434 -7 -957 0 -1045 -3 -987 61 -1088 33 -51
69 -82 139 -119 l45 -24 795 0 795 0 45 24 c70 37 106 68 139 119 64 101 61
44 59 1093 l-3 954 -1031 3 c-567 1 -1034 -1 -1037 -5z m683 -1038 l0 -685
-115 0 -115 0 0 685 0 685 115 0 115 0 0 -685z m460 0 l0 -685 -110 0 -110 0
0 685 0 685 110 0 110 0 0 -685z m470 0 l0 -685 -115 0 -115 0 0 685 0 685
115 0 115 0 0 -685z" id="node2" class="node"></path>
</g>
<g transform="translate(0.000000,300.000000) scale(0.100000,-0.100000)" fill="#3c3b3b" stroke="none" fill-opacity="0">

<path d="M1187 2742 c-9 -10 -20 -33 -23 -50 l-6 -32 342 0 343 0 -7 32 c-14
70 -6 68 -336 68 -274 0 -298 -1 -313 -18z" id="node4" class="node"></path>
<path d="M920 1155 l0 -685 115 0 115 0 0 685 0 685 -115 0 -115 0 0 -685z" id="node5" class="node"></path>
<path d="M1390 1155 l0 -685 110 0 110 0 0 685 0 685 -110 0 -110 0 0 -685z" id="node6" class="node"></path>
<path d="M1850 1155 l0 -685 115 0 115 0 0 685 0 685 -115 0 -115 0 0 -685z" id="node7" class="node"></path>
</g>
</svg>
